<svg xmlns="http://www.w3.org/2000/svg" xmlns:xlink="http://www.w3.org/1999/xlink" viewBox="0 0 299.49 341.08"><defs><style>.cls-1{fill:url(#Gradiente_sem_nome_184);}.cls-2{fill:url(#Gradiente_sem_nome_184-2);}.cls-3{fill:url(#Gradiente_sem_nome_184-3);}.cls-4{fill:url(#Gradiente_sem_nome_184-4);}.cls-5{fill:url(#Gradiente_sem_nome_189);}.cls-6{fill:url(#Gradiente_sem_nome_189-2);}.cls-7{fill:url(#Gradiente_sem_nome_189-3);}.cls-8{fill:url(#Gradiente_sem_nome_189-4);}.cls-9{fill:url(#Gradiente_sem_nome_189-5);}.cls-10{fill:url(#Gradiente_sem_nome_189-6);}.cls-11{fill:url(#Gradiente_sem_nome_189-7);}.cls-12{fill:url(#Gradiente_sem_nome_189-8);}.cls-13{fill:url(#Gradiente_sem_nome_189-9);}.cls-14{fill:url(#Gradiente_sem_nome_189-10);}.cls-15{fill:url(#Gradiente_sem_nome_189-11);}.cls-16{fill:url(#Gradiente_sem_nome_189-12);}.cls-17{fill:url(#Gradiente_sem_nome_189-13);}.cls-18{fill:url(#Gradiente_sem_nome_189-14);}.cls-19{fill:url(#Gradiente_sem_nome_189-15);}.cls-20{fill:url(#Gradiente_sem_nome_189-16);}.cls-21{fill:url(#Gradiente_sem_nome_189-17);}.cls-22{fill:url(#Gradiente_sem_nome_189-18);}.cls-23{fill:url(#Gradiente_sem_nome_189-19);}.cls-24{fill:url(#Gradiente_sem_nome_189-20);}.cls-25{fill:url(#Gradiente_sem_nome_189-21);}.cls-26{fill:url(#Gradiente_sem_nome_189-22);}.cls-27{fill:url(#Gradiente_sem_nome_189-23);}.cls-28{fill:url(#Gradiente_sem_nome_189-24);}.cls-29{fill:url(#Gradiente_sem_nome_189-25);}.cls-30,.cls-32{fill-rule:evenodd;}.cls-30{fill:url(#Gradiente_sem_nome_178);}.cls-31{fill:url(#Gradiente_sem_nome_178-2);}.cls-32{fill:url(#Gradiente_sem_nome_178-3);}.cls-33{fill:url(#Gradiente_sem_nome_178-4);}.cls-34{fill:#464646;}.cls-35{fill:url(#Gradiente_sem_nome_178-5);}.cls-36{fill:url(#Gradiente_sem_nome_178-6);}.cls-37{fill:url(#Gradiente_sem_nome_178-7);}.cls-38{fill:url(#Gradiente_sem_nome_178-8);}</style><linearGradient id="Gradiente_sem_nome_184" x1="74.42" y1="252.84" x2="104.96" y2="252.84" gradientUnits="userSpaceOnUse"><stop offset="0" stop-color="#464646"/><stop offset="0.16" stop-color="#504242"/><stop offset="0.43" stop-color="#6c3838"/><stop offset="0.79" stop-color="#982727"/><stop offset="1" stop-color="#b71c1c"/></linearGradient><linearGradient id="Gradiente_sem_nome_184-2" x1="0.55" y1="170.54" x2="298.81" y2="170.54" xlink:href="#Gradiente_sem_nome_184"/><linearGradient id="Gradiente_sem_nome_184-3" x1="32.98" y1="170.08" x2="265.85" y2="170.08" xlink:href="#Gradiente_sem_nome_184"/><linearGradient id="Gradiente_sem_nome_184-4" x1="149.74" y1="219.79" x2="281.39" y2="219.79" xlink:href="#Gradiente_sem_nome_184"/><linearGradient id="Gradiente_sem_nome_189" x1="33.43" y1="134.67" x2="48.26" y2="134.67" gradientUnits="userSpaceOnUse"><stop offset="0" stop-color="#464646"/><stop offset="0.35" stop-color="#484545"/><stop offset="0.52" stop-color="#504242"/><stop offset="0.65" stop-color="#5d3e3e"/><stop offset="0.77" stop-color="#6f3737"/><stop offset="0.87" stop-color="#872e2e"/><stop offset="0.95" stop-color="#a52323"/><stop offset="1" stop-color="#b71c1c"/></linearGradient><linearGradient id="Gradiente_sem_nome_189-2" x1="47.97" y1="126.01" x2="55.18" y2="126.01" xlink:href="#Gradiente_sem_nome_189"/><linearGradient id="Gradiente_sem_nome_189-3" x1="55.97" y1="118.94" x2="71.72" y2="118.94" xlink:href="#Gradiente_sem_nome_189"/><linearGradient id="Gradiente_sem_nome_189-4" x1="72.97" y1="111.28" x2="90.39" y2="111.28" xlink:href="#Gradiente_sem_nome_189"/><linearGradient id="Gradiente_sem_nome_189-5" x1="33.43" y1="163.53" x2="51.22" y2="163.53" xlink:href="#Gradiente_sem_nome_189"/><linearGradient id="Gradiente_sem_nome_189-6" x1="51.57" y1="153.24" x2="68.47" y2="153.24" xlink:href="#Gradiente_sem_nome_189"/><linearGradient id="Gradiente_sem_nome_189-7" x1="69.22" y1="143.92" x2="87.39" y2="143.92" xlink:href="#Gradiente_sem_nome_189"/><linearGradient id="Gradiente_sem_nome_189-8" x1="84.89" y1="131.57" x2="100.51" y2="131.57" xlink:href="#Gradiente_sem_nome_189"/><linearGradient id="Gradiente_sem_nome_189-9" x1="101.68" y1="124.01" x2="117.55" y2="124.01" xlink:href="#Gradiente_sem_nome_189"/><linearGradient id="Gradiente_sem_nome_189-10" x1="122.47" y1="112.86" x2="140.64" y2="112.86" xlink:href="#Gradiente_sem_nome_189"/><linearGradient id="Gradiente_sem_nome_189-11" x1="139.89" y1="102.44" x2="154.86" y2="102.44" xlink:href="#Gradiente_sem_nome_189"/><linearGradient id="Gradiente_sem_nome_189-12" x1="159.86" y1="94.15" x2="172.36" y2="94.15" xlink:href="#Gradiente_sem_nome_189"/><linearGradient id="Gradiente_sem_nome_189-13" x1="173.39" y1="85.55" x2="185.67" y2="85.55" xlink:href="#Gradiente_sem_nome_189"/><linearGradient id="Gradiente_sem_nome_189-14" x1="33.43" y1="200.03" x2="50.68" y2="200.03" xlink:href="#Gradiente_sem_nome_189"/><linearGradient id="Gradiente_sem_nome_189-15" x1="52.22" y1="191.09" x2="69.52" y2="191.09" xlink:href="#Gradiente_sem_nome_189"/><linearGradient id="Gradiente_sem_nome_189-16" x1="70.01" y1="180.33" x2="89.69" y2="180.33" xlink:href="#Gradiente_sem_nome_189"/><linearGradient id="Gradiente_sem_nome_189-17" x1="90.39" y1="171.73" x2="98.39" y2="171.73" xlink:href="#Gradiente_sem_nome_189"/><linearGradient id="Gradiente_sem_nome_189-18" x1="98.9" y1="164.39" x2="115.84" y2="164.39" xlink:href="#Gradiente_sem_nome_189"/><linearGradient id="Gradiente_sem_nome_189-19" x1="140.76" y1="139.71" x2="158.07" y2="139.71" xlink:href="#Gradiente_sem_nome_189"/><linearGradient id="Gradiente_sem_nome_189-20" x1="186.38" y1="112.86" x2="203.69" y2="112.86" xlink:href="#Gradiente_sem_nome_189"/><linearGradient id="Gradiente_sem_nome_189-21" x1="204.1" y1="102.69" x2="221.04" y2="102.69" xlink:href="#Gradiente_sem_nome_189"/><linearGradient id="Gradiente_sem_nome_189-22" x1="53.73" y1="176.58" x2="65.73" y2="176.58" xlink:href="#Gradiente_sem_nome_189"/><linearGradient id="Gradiente_sem_nome_189-23" x1="120.97" y1="151.76" x2="139.43" y2="151.76" xlink:href="#Gradiente_sem_nome_189"/><linearGradient id="Gradiente_sem_nome_189-24" x1="163.51" y1="124.73" x2="186.38" y2="124.73" xlink:href="#Gradiente_sem_nome_189"/><linearGradient id="Gradiente_sem_nome_189-25" x1="222.26" y1="94.32" x2="241.64" y2="94.32" xlink:href="#Gradiente_sem_nome_189"/><linearGradient id="Gradiente_sem_nome_178" x1="0.68" y1="170.54" x2="298.81" y2="170.54" gradientUnits="userSpaceOnUse"><stop offset="0" stop-color="#464646"/><stop offset="0.44" stop-color="#484545"/><stop offset="0.6" stop-color="#4f4343"/><stop offset="0.71" stop-color="#5a3e3e"/><stop offset="0.8" stop-color="#6b3838"/><stop offset="0.88" stop-color="#813030"/><stop offset="0.95" stop-color="#9c2626"/><stop offset="1" stop-color="#b71c1c"/></linearGradient><linearGradient id="Gradiente_sem_nome_178-2" x1="0" y1="170.54" x2="299.49" y2="170.54" xlink:href="#Gradiente_sem_nome_178"/><linearGradient id="Gradiente_sem_nome_178-3" x1="18.33" y1="170.54" x2="281.16" y2="170.54" xlink:href="#Gradiente_sem_nome_178"/><linearGradient id="Gradiente_sem_nome_178-4" x1="17.64" y1="170.54" x2="281.85" y2="170.54" xlink:href="#Gradiente_sem_nome_178"/><linearGradient id="Gradiente_sem_nome_178-5" x1="149.13" y1="273.14" x2="230.51" y2="273.14" xlink:href="#Gradiente_sem_nome_178"/><linearGradient id="Gradiente_sem_nome_178-6" x1="154.77" y1="190.19" x2="281.85" y2="190.19" xlink:href="#Gradiente_sem_nome_178"/><linearGradient id="Gradiente_sem_nome_178-7" x1="32.64" y1="170.54" x2="266.85" y2="170.54" xlink:href="#Gradiente_sem_nome_178"/><linearGradient id="Gradiente_sem_nome_178-8" x1="73.29" y1="252.77" x2="105.96" y2="252.77" xlink:href="#Gradiente_sem_nome_178"/></defs><title>Ativo 1</title><g id="Camada_2" data-name="Camada 2"><g id="Vermelho_melhor" data-name="Vermelho melhor"><g id="Claro"><g id="Color"><circle class="cls-1" cx="89.69" cy="252.84" r="15.27"/><path class="cls-2" d="M1.37,227.44c0,.67-.38,19-.38,19l2.71,8.33,4.89,6.45,6.28,5.32,4.25,1.69L46.81,284.4l10.86,6.33,8.83,5.15L134,335.24l7.91,3.88,7.86,1.27,5-.51,6.94-2.47,8.48-4.9,25.29-14.75,30.05-17.52L290,262.06l5.38-6.53,3.42-7.92,0-149.67-1.57-8.43-2.73-5.41-4.15-4.78-3.64-2.76L159.1,2.49,152.72.69l-6.35.92-3.58.06L135.42,5,12.4,76.8,6.35,82.28l-4.74,9.3L1,101.78v119.5l17.73-1.34-.17-43,.17-59.66.17-13,1-5.5,4.16-6.84,9.67-7.33,13.67-7.67,95.16-55,7.19-1.84,4.65,1.18,10,3.66,6,4.5,89.5,51.67,15,9.17,4.33,7.33,1.94,4.67.23,14-.23,5.82.06,46.18.17,48.5v16.33l-.5,5.5-2,6.33-3.34,4.34-69,41.33-36.33,21.33-9.83,5.84-6.67,2.42-7-.09-13.83-5.83-25.67-16L81.05,283.94l-53-31.66-5.66-4.67-3.1-7-1-7.53V221.44l-2.11-7H.55Z"/><polygon class="cls-3" points="265.85 95.21 32.98 231.94 32.98 244.94 265.48 108.16 265.85 95.21"/><polygon class="cls-4" points="247.77 120.14 160.41 170.54 155.44 190.72 155.53 210.03 159.34 221.47 161.55 226.07 165.02 228.67 172.13 232.47 176.34 236.44 179.69 249.79 177.61 262.51 163.5 293.99 149.75 315.11 155.78 319.45 185.3 303.09 193.72 279.61 200.58 266.39 208.4 258.64 216.93 256.75 221.68 255.37 225.53 257.53 232.26 258.68 238.01 261.22 247.77 260.04 258.93 254.58 269.15 245.53 276.31 236.44 281.39 228.3 281.39 141.03 269.21 129.98 255.99 122.51 247.77 120.14"/><polygon class="cls-5" points="33.43 126.03 36.09 146.03 48.26 138.9 47.76 133.61 40.18 138.19 38.26 123.32 33.43 126.03"/><polygon class="cls-6" points="50.3 137.53 55.18 134.67 52.74 114.48 47.97 117.32 50.3 137.53"/><polygon class="cls-7" points="66.14 113.03 69.72 108.69 66.89 107.11 63.64 107.94 59.22 110.94 56.47 115.53 55.97 119.69 56.47 124.19 57.13 128.36 58.55 129.94 61.99 130.78 65.47 129.19 68.14 127.03 70.64 123.94 71.72 120.69 71.05 113.28 64.22 116.94 63.84 118.94 64.22 121.03 67.22 120.19 66.55 122.94 63.84 125.19 61.99 124.94 61.2 118.94 60.72 115.94 61.99 113.44 64.3 112.36 66.14 113.03"/><polygon class="cls-8" points="72.97 124.44 76.89 100.28 80.97 98.11 90.39 113.94 85.72 117.28 83.8 114.48 81.68 109.53 80.8 107.11 79.89 105.28 79.05 111.28 77.97 121.03 77.97 111.28 83.3 109.69 84.14 113.36 79.14 116.28 77.47 122.1 72.97 124.44"/><polygon class="cls-9" points="33.43 157.86 35.97 177.86 40.84 175.44 38.8 163.61 45.8 171.78 50.39 169.61 51.22 169.11 48.26 149.19 43.64 151.78 45.47 163.53 38.3 155.28 33.43 157.86"/><polygon class="cls-10" points="60.72 163.86 64.47 161.49 67.97 156.65 68.47 152.36 67.51 145.4 66.09 141.57 61.99 141.19 57.51 143.44 53.84 147.33 51.57 153.15 52.34 157.65 53.76 163.86 56.64 165.07 58.26 159.4 56.68 150.82 58.22 148.44 60.68 146.78 62.64 147.15 63.84 153.13 63.51 156.44 60.89 158.61 59.05 159.4 57.51 159.74 55.97 165.28 60.72 163.86"/><path class="cls-11" d="M69.22,136.65l2.71,20.42,4.5-2.63-.54-6.79.75-.32,5.16,3.61,5.59-3.08-5.46-3.75L84,140.53l.88-6s-1.59-2.5-1.63-2.63A22.85,22.85,0,0,0,81,130.78l-5.58,2.58,1.42,3.92,2.25-.67.62.92.33,1.58-.7,1.88-2.55,1.75-1.29.12-.58-2.46-.29-1.58,1.29-.92L79.85,135l-3.17-2.67Z"/><polygon class="cls-12" points="90.8 129.57 92.72 144.44 97.55 142.11 95.72 126.65 100.51 123.61 99.97 118.69 84.89 127.53 85.59 132.32 90.8 129.57"/><polygon class="cls-13" points="101.68 117.61 104.39 137.94 117.55 130.32 116.93 125.61 109.09 130.53 108.3 127.78 115.76 123.03 115.47 118.69 108.01 122.94 107.39 119.53 115.47 114.73 115.01 110.07 101.68 117.28 101.68 117.61"/><path class="cls-14" d="M122.47,105.59,125.18,126l4.5-2.63-.54-6.79.75-.32,5.16,3.61,5.59-3.08-5.46-3.75,2.08-3.59.88-6s-1.59-2.5-1.63-2.62a20.93,20.93,0,0,0-2.25-1.09l-5.58,2.59,1.42,3.91,2.25-.66.62.91.33,1.59-.7,1.87-2.55,1.75-1.29.13-.58-2.46-.29-1.58,1.29-.92,3.92-2.92-3.17-2.66Z"/><polygon class="cls-15" points="152.51 91.16 147.89 90.54 142.73 94.16 139.89 98.97 140.04 103.35 142.39 105.47 149.2 104.29 149.75 105.76 146.82 108.54 143.48 108.54 141.17 113.57 145.2 114.35 149.95 111.29 153.57 107.41 154.85 103.32 153.26 98.91 149.74 98.57 145.89 99.72 144.51 99.29 144.54 97.57 145.54 96.29 147.51 95.54 149.41 95.21 150.64 95.07 152.51 91.16"/><path class="cls-16" d="M159.86,88.44s1.84,15.47,1.9,15.6,8.41-4.6,8.41-4.6l2.19-4.82-.57-7.46-1.22-2.9-4.81.59.35,4,1.53-.47.53,1,.59,2.28.1,3.55-2.07,2.39-1.5,1-1.12-8.94L167.48,88l-.56-3.72Z"/><polygon class="cls-17" points="173.39 80.47 183.42 74.63 184.07 78.04 177.73 82.19 177.76 84.66 183.67 81.32 184.32 84.47 178.54 88.26 178.85 90.41 185.07 86.94 185.67 90.54 175.6 96.47 173.39 80.47"/><polygon class="cls-18" points="39.96 197.82 42.08 214.25 47.41 211.67 45.39 194.6 50.68 191.25 50.08 185.82 33.43 195.57 34.21 200.86 39.96 197.82"/><polygon class="cls-19" points="52.22 184.08 55.17 206.36 69.52 198.01 68.84 192.85 60.3 198.23 59.44 195.22 67.57 190.02 67.25 185.27 59.12 189.93 58.44 186.18 67.25 180.93 66.75 175.82 52.22 183.72 52.22 184.08"/><polygon class="cls-20" points="70.01 174.06 72.82 196.19 78.21 193.52 75.95 180.43 83.7 189.46 88.77 187.06 89.69 186.51 86.42 164.47 81.3 167.33 83.33 180.33 75.4 171.21 70.01 174.06"/><polygon class="cls-21" points="92.98 184.44 98.39 181.29 95.68 159.02 90.39 162.15 92.98 184.44"/><polygon class="cls-22" points="113.18 151.62 107.95 150.91 102.11 155.01 98.9 160.46 99.07 165.41 101.73 167.82 109.44 166.47 110.05 168.13 106.75 171.28 102.96 171.28 100.35 176.98 104.91 177.86 110.28 174.4 114.39 170.01 115.84 165.38 114.03 160.39 110.05 160 105.69 161.3 104.13 160.81 104.17 158.87 105.3 157.42 107.53 156.57 109.68 156.2 111.06 156.04 113.18 151.62"/><polygon class="cls-23" points="140.76 132.71 143.72 154.99 158.06 146.63 157.38 141.47 148.85 146.86 147.98 143.85 156.11 138.64 155.79 133.89 147.67 138.55 146.99 134.81 155.79 129.56 155.29 124.44 140.76 132.34 140.76 132.71"/><polygon class="cls-24" points="186.38 105.85 189.34 128.13 203.69 119.78 203 114.62 194.47 120 193.6 116.99 201.73 111.79 201.41 107.04 193.29 111.7 192.61 107.95 201.41 102.7 200.92 97.59 186.38 105.49 186.38 105.85"/><polygon class="cls-25" points="218.39 89.93 213.16 89.22 207.32 93.32 204.1 98.77 204.28 103.72 206.93 106.12 214.64 104.78 215.26 106.44 211.95 109.59 208.17 109.59 205.55 115.28 210.11 116.17 215.49 112.7 219.59 108.32 221.04 103.68 219.24 98.7 215.26 98.31 210.89 99.61 209.34 99.12 209.37 97.18 210.5 95.73 212.73 94.88 214.88 94.5 216.27 94.35 218.39 89.93"/><polygon class="cls-26" points="54.48 180.82 58.48 178.38 59.23 176.47 61.51 177.16 65.73 174.44 60.39 171.91 56.6 173.94 53.73 180.57 53.95 181.26 54.48 180.82"/><polygon class="cls-27" points="120.97 143.61 124.09 166.15 135.18 160.07 138.76 154.24 139.43 146.78 137.59 139.4 135.34 137.74 131.76 137.94 132.72 144.44 134.14 153.03 133.26 154.99 129.34 157.78 127.64 145.9 133.3 143.49 132.84 137.36 120.97 143.61"/><polygon class="cls-28" points="168.39 116.17 174.64 124.44 177.82 110.63 183.2 107.82 186.38 129.76 180.95 132.88 179.53 122.01 177.39 131.57 174.07 133.63 170.45 128.13 171.82 138.26 166.39 141.63 163.51 119.1 168.39 116.17"/><polygon class="cls-29" points="231.01 79.76 241.64 97.59 236.32 100.69 233.7 97.19 228.2 100.69 227.89 105.32 222.26 108.88 226.76 81.63 229.82 88.38 228.95 93.76 231.26 93.26 231.95 91.94 228.39 86.63 226.01 82.19 231.01 79.76"/></g><g id="Logo"><path class="cls-30" d="M224.27,40.11,163,4.38a25.69,25.69,0,0,0-26.53,0L75.22,40.11,13.75,76A25.7,25.7,0,0,0,.69,98.71V242.37a25.7,25.7,0,0,0,13.06,22.74L75.22,301l61.26,35.73a25.69,25.69,0,0,0,26.53,0L224.27,301l61.47-35.86a25.7,25.7,0,0,0,13.06-22.74V98.71A25.7,25.7,0,0,0,285.74,76ZM163,4.38l61.27,35.73L285.74,76a25.7,25.7,0,0,1,13.07,22.74V242.37a25.7,25.7,0,0,1-13.07,22.74L224.28,301,163,336.7a25.69,25.69,0,0,1-26.53,0L75.21,301,13.75,265.11A25.7,25.7,0,0,1,.68,242.37V98.71A25.7,25.7,0,0,1,13.75,76L75.21,40.11,136.48,4.38A25.69,25.69,0,0,1,163,4.38Z"/><path class="cls-31" d="M149.74,341.08a26.86,26.86,0,0,1-13.61-3.79L13.4,265.7c-.85-.5-1.68-1-2.46-1.6A26.23,26.23,0,0,1,.12,245C0,244.16,0,243.27,0,242.37V98.71c0-.9,0-1.8.12-2.68A26.24,26.24,0,0,1,10.91,77c.8-.57,1.63-1.12,2.49-1.62L136.13,3.79A26.3,26.3,0,0,1,156.46.89a27.69,27.69,0,0,1,3,1h0a29.25,29.25,0,0,1,3.9,1.91L286.09,75.38a28.17,28.17,0,0,1,2.59,1.7,26.2,26.2,0,0,1,10.67,18.74c.09,1,.14,1.91.14,2.89V242.37c0,1-.05,1.94-.14,2.88A26.19,26.19,0,0,1,288.65,264a29.7,29.7,0,0,1-2.56,1.68L163.36,337.29a27.76,27.76,0,0,1-3.92,1.91,25.11,25.11,0,0,1-3.11,1A25.92,25.92,0,0,1,149.74,341.08Zm-3.46-1.62a24.3,24.3,0,0,0,7,0,25.29,25.29,0,0,0,6.37-1.8,26.42,26.42,0,0,0,3-1.54L285.4,264.52c.78-.46,1.54-.95,2.25-1.46A24.89,24.89,0,0,0,298,244.91c.07-.83.11-1.68.11-2.54V98.71c0-.86,0-1.71-.11-2.55A24.9,24.9,0,0,0,287.68,78c-.73-.52-1.49-1-2.28-1.48L162.67,5a28.85,28.85,0,0,0-2.93-1.49,25.85,25.85,0,0,0-6.58-1.87,24.9,24.9,0,0,0-6.79,0,25.5,25.5,0,0,0-6.64,1.88A28.46,28.46,0,0,0,136.82,5L14.09,76.56c-.76.45-1.5.92-2.2,1.42A24.87,24.87,0,0,0,1.47,96.35c-.07.77-.1,1.56-.1,2.36V242.37c0,.79,0,1.58.1,2.36a24.86,24.86,0,0,0,10.45,18.39c.7.49,1.42,1,2.17,1.4l122.73,71.59a28.69,28.69,0,0,0,3,1.53A25.48,25.48,0,0,0,146.28,339.46Z"/><path class="cls-32" d="M215.45,55.55l-54-31.5a22.67,22.67,0,0,0-23.39,0L84,55.55,29.85,87.16a22.68,22.68,0,0,0-11.52,20V233.87a22.68,22.68,0,0,0,11.52,20L84,285.53l54,31.5a22.67,22.67,0,0,0,23.39,0l54-31.5,54.19-31.61a22.68,22.68,0,0,0,11.52-20V107.21a22.68,22.68,0,0,0-11.52-20ZM161.44,24l54,31.51,54.19,31.61a22.66,22.66,0,0,1,11.52,20V233.87a22.66,22.66,0,0,1-11.52,20l-54.19,31.61-54,31.51a22.68,22.68,0,0,1-23.39,0L84,285.53,29.85,253.92a22.66,22.66,0,0,1-11.52-20V107.21a22.66,22.66,0,0,1,11.52-20L84,55.55l54-31.51A22.68,22.68,0,0,1,161.44,24Z"/><path class="cls-33" d="M149.74,321a23.85,23.85,0,0,1-12-3.35L29.5,254.51a26.07,26.07,0,0,1-2.6-1.73,23.15,23.15,0,0,1-5.58-6c-.41-.64-.79-1.31-1.14-2a23.27,23.27,0,0,1-2.38-8.07,26.39,26.39,0,0,1-.16-2.83V107.22a26.06,26.06,0,0,1,.16-2.82,23.43,23.43,0,0,1,2.33-8,21.06,21.06,0,0,1,1.27-2.21,23.24,23.24,0,0,1,5.51-5.91,25.93,25.93,0,0,1,2.59-1.73L137.7,23.45a23.36,23.36,0,0,1,24.09,0L270,86.57a26.9,26.9,0,0,1,2.61,1.74,23.4,23.4,0,0,1,6,6.71c.11.19.22.37.32.56a23.47,23.47,0,0,1,2.82,9.25c.07.79.11,1.58.11,2.39V233.86c0,.81,0,1.61-.11,2.39a23.3,23.3,0,0,1-3,9.56,23,23,0,0,1-6.16,7,25.93,25.93,0,0,1-2.59,1.73l-108.2,63.12a26.25,26.25,0,0,1-3.63,1.75q-1.08.42-2.16.72A23.08,23.08,0,0,1,149.74,321Zm-3-1.59a21.58,21.58,0,0,0,6.06,0,22.3,22.3,0,0,0,5.61-1.58,23.27,23.27,0,0,0,2.68-1.36l108.2-63.11c.77-.46,1.51-.94,2.22-1.46a21.83,21.83,0,0,0,8.87-15.94q.09-1,.09-2.07V107.22q0-1.05-.09-2.07a21.82,21.82,0,0,0-8.85-15.92,24.79,24.79,0,0,0-2.24-1.48L161.1,24.64a25,25,0,0,0-2.88-1.44,22,22,0,0,0-5.29-1.48,21.52,21.52,0,0,0-6.31,0,22.31,22.31,0,0,0-5.4,1.51,24.14,24.14,0,0,0-2.83,1.42L30.19,87.75A26.31,26.31,0,0,0,28,89.2a21.83,21.83,0,0,0-8.85,15.59,24.26,24.26,0,0,0-.12,2.43V233.86a24.26,24.26,0,0,0,.12,2.43A21.87,21.87,0,0,0,28,251.88c.7.51,1.44,1,2.21,1.45l108.2,63.11a23.53,23.53,0,0,0,2.6,1.32A22.27,22.27,0,0,0,146.75,319.39Z"/><path class="cls-34" d="M35.36,147.33l-2.8-21.88,6.09-3.58,2,15.31,7.7-4.51.84,6.58ZM34,126.17l2.42,18.94,11.23-6.58-.46-3.63-7.7,4.51-2-15.31Zm15.74,12.72L47,117,53,113.45l2.8,21.88Zm-1.33-21.17,2.43,18.94,3.5-2L52,115.67Zm12.41,13.71a4.94,4.94,0,0,1-2.17-.47c-1-.49-2.25-1.61-2.58-4.16l-.89-7c-.65-5.06,3.13-9.76,6.93-12,3.36-2,6.37-1.71,8,.7l.3.43-4.69,5.43-.5-.76c-.27-.42-.75-.51-1.42-.26-1.31.48-2.7,2.1-2.52,3.46l.89,7c.08.58.33.77.9.7,1.32-.17,3.27-1.86,3.3-3.48l-3,1.75L62.69,117l8.91-5.22.78,6.1c.66,5.16-3.09,9.89-6.86,12.1A9.47,9.47,0,0,1,60.85,131.43Zm5.49-23.58A7.37,7.37,0,0,0,62.83,109c-3.42,2-6.84,6.18-6.27,10.63l.9,7a3.68,3.68,0,0,0,1.82,3.11c1.34.66,3.42.31,5.55-.93,3.39-2,6.78-6.2,6.19-10.74l-.51-4-6.35,3.71.37,2.85,3-1.77.23,1.78c.33,2.56-2.47,5-4.47,5.3A2,2,0,0,1,60.89,124l-.9-7c-.26-2.06,1.59-4.24,3.41-4.92a2.62,2.62,0,0,1,2.43.17l2.9-3.35A3.09,3.09,0,0,0,66.34,107.85ZM71.85,126l4.28-26,5.23-3.06L91.42,114.5l-6.34,3.71-1.76-3.37-4.14,2.42-.66,4.79Zm5.52-25.18-3.7,22.53,3.59-2.11.65-4.78,6-3.49,1.76,3.37,3.93-2.3L80.85,98.74Zm.85,12.11.78-8.46,1.13-.64,2.58,6.48Zm1.88-5.48-.27,3,1.18-.69Z"/><path class="cls-34" d="M35.43,179.36l-2.8-21.89L38,154.31l6.11,6.48L43,151.43l6-3.54,2.8,21.88-5.7,3.34-5.71-6v0l1.1,8.6ZM34.1,158.19l2.43,18.94,3.5-2-1-7.65-1.24-4,1.06-.87,2.57,3.68,4.9,5.11,4-2.33L47.9,150.11l-3.48,2,1.13,8.77c.1.28.24.75.47,1.53.12.41.28.94.38,1.26l.83.29-1.65,1.36-2.52-3.73L37.79,156Zm22.69,7.6a5,5,0,0,1-2.21-.48,4.76,4.76,0,0,1-2.51-4l-.9-7c-.65-5.13,3.31-10,7.27-12.28,2.77-1.62,5.42-2,7.28-1.11a4.8,4.8,0,0,1,2.51,4l.89,7c.66,5.12-3.31,10-7.27,12.28A10.32,10.32,0,0,1,56.79,165.79Zm6.71-24a9.08,9.08,0,0,0-4.37,1.4c-3.58,2.1-7.18,6.42-6.6,10.92l.89,7a3.5,3.5,0,0,0,1.76,3c1.42.7,3.65.3,6-1.06,3.58-2.1,7.18-6.42,6.6-10.92l-.89-7a3.5,3.5,0,0,0-1.76-3A3.57,3.57,0,0,0,63.5,141.82Zm-4.7,18.37a2.21,2.21,0,0,1-.95-.2,1.83,1.83,0,0,1-1-1.5l-.89-7c-.24-1.89,1.4-3.78,3-4.74a3.81,3.81,0,0,1,3.42-.58,1.86,1.86,0,0,1,1,1.56l.89,7c.24,1.83-1.44,3.71-3.1,4.68A5,5,0,0,1,58.8,160.19Zm-1.49-8.85.9,7c0,.35.19.42.24.45a2.74,2.74,0,0,0,2.09-.53c1.29-.75,2.58-2.18,2.44-3.33l-.9-7c0-.4-.21-.48-.27-.51a2.77,2.77,0,0,0-2.13.54c-1.28.75-2.51,2.22-2.37,3.39Zm14,7-2.81-21.88,8-4.67c2.61-1.53,4.75-1.91,6.37-1.14,1.36.65,2.22,2.07,2.55,4.23a10.83,10.83,0,0,1-2.48,8.85l6.29,4.13-7.3,4.28-5.22-3.91-.07,0,.83,6.49ZM70,137.19l2.43,18.94L76,154l-.83-6.48,1.63-1L82,150.52l4.62-2.71L80.74,144l.61-.59A9.29,9.29,0,0,0,84,135.08c-.25-1.67-.85-2.75-1.78-3.19-1.16-.55-2.92-.18-5.09,1.09Zm22.17,9-2-15.54-5,2.95-.82-6.38,16.18-9.48.82,6.38-5,2.94,2,15.54Zm-.9-17.76,2,15.54,3.56-2.09-2-15.54,5-2.94-.44-3.43-13.62,8,.44,3.43Zm-16.49,16.2L74,138.45l3.2-1.88a2.91,2.91,0,0,1,1.89-.46,1.92,1.92,0,0,1,1.36.95c.87,1.48.21,4.09-2,5.36Zm.68-5.42.41,3.2,1.92-1.13c1.52-.89,1.93-2.7,1.47-3.49a.55.55,0,0,0-.39-.29,1.69,1.69,0,0,0-1,.29Zm28.45.1-2.81-21.88,14.47-8.48.81,6.32L108,120.12l.21,1.7,7.68-4.5.76,5.94-7.68,4.5.21,1.58,8.34-4.89.81,6.35Zm-1.33-21.16L105,137.05l11.9-7-.43-3.4-8.35,4.89L107.5,127l7.68-4.5-.39-3L107.12,124l-.59-4.64,8.34-4.89-.43-3.37Zm21.92,9.1-2.8-21.88,8-4.67c2.62-1.53,4.76-1.91,6.37-1.14,1.36.65,2.22,2.07,2.55,4.23a10.82,10.82,0,0,1-2.48,8.85l6.3,4.13L135,121l-5.22-3.91-.07,0,.83,6.49Zm-1.33-21.16L125.55,125l3.56-2.09-.83-6.48,1.64-1,5.21,3.92,4.63-2.71-5.86-3.85.62-.59a9.3,9.3,0,0,0,2.66-8.29c-.26-1.67-.86-2.75-1.79-3.19-1.16-.55-2.92-.17-5.08,1.09Zm21,8.74a6.4,6.4,0,0,1-3.61-1.11l-.51-.35,3.27-6,.62.37c1,.61,2.51.24,3.57-.41a2.81,2.81,0,0,0,1.64-2.19.17.17,0,0,0,0-.07c-.1-.1-.92-.19-2.53.5-2.16.88-4.09.91-5.47.11a4.7,4.7,0,0,1-2.14-3.72c-.58-4.51,2.91-8.76,6.39-10.8,1.87-1.09,4.69-2.34,7.6-.52l.58.36-3.49,5.53-.55-.27a3.25,3.25,0,0,0-3.16.43,2.59,2.59,0,0,0-1.29,2.26.11.11,0,0,0,.07.09c.07,0,.46.21,1.79-.24,2.15-.82,4.6-1.52,6.35-.42,1.15.73,1.79,2.08,2,4.13.37,4.34-3.35,9-7,11.15A8.06,8.06,0,0,1,144.16,114.79Zm-2.31-1.93a5.77,5.77,0,0,0,5.66-.42c3.38-2,6.68-6.21,6.37-9.85-.13-1.58-.58-2.62-1.33-3.09-1.24-.79-3.41-.12-5.16.54-1.38.47-2.3.51-2.94.14a1.49,1.49,0,0,1-.73-1.08,3.91,3.91,0,0,1,1.87-3.57,4.74,4.74,0,0,1,3.95-.76l2.11-3.34c-1.59-.72-3.35-.44-5.58.87-3.21,1.88-6.2,5.73-5.73,9.44a3.43,3.43,0,0,0,1.48,2.72c1,.59,2.51.52,4.25-.19,1.18-.51,2.79-1,3.75-.41a1.42,1.42,0,0,1,.69,1.14,4,4,0,0,1-2.3,3.46,5.32,5.32,0,0,1-4.35.71Zm-13.95.59-.79-6.14,3.2-1.88a2.43,2.43,0,0,1,2.53-.24,2.4,2.4,0,0,1,1.09,2.17,4.64,4.64,0,0,1-2.33,3.92Zm.68-5.42.41,3.2,1.92-1.13a3.21,3.21,0,0,0,1.65-2.73,1.14,1.14,0,0,0-.39-1,1.29,1.29,0,0,0-1.17.23Zm32.78-2.43-2.24-17.53,6-3.49c2.13-1.25,4.07-1.56,5.46-.87a4,4,0,0,1,2,3.36l.69,5.39c.54,4.27-2.59,7.7-5.44,9.35Zm-.77-16.8,1.87,14.57,4.68-2.74c2.49-1.44,5.23-4.39,4.77-8l-.69-5.4a2.71,2.71,0,0,0-1.28-2.3c-.95-.47-2.47-.17-4.17.82Zm4.07,10.77-1.27-9.93,2.3-1.35a2.36,2.36,0,0,1,2.22-.35,1.75,1.75,0,0,1,.9,1.46l.64,5a3.57,3.57,0,0,1-2,3.52Zm.2-9.21.89,7,1-.6a2.19,2.19,0,0,0,1.31-2.17l-.64-5c0-.29-.12-.39-.15-.4s-.34,0-.92.3Zm9.88,7.4-2.25-17.52,11.65-6.82.68,5.28-6.56,3.84.13,1,6-3.53.64,5-6,3.54.12.93,6.56-3.84.67,5.3ZM174,81l1.87,14.58,9.08-5.32-.3-2.36-6.56,3.84-.49-3.87,6-3.54-.26-2-6,3.54-.5-4L183.35,78l-.3-2.34Z"/><path class="cls-34" d="M41.36,215.9l-2.23-17.43-5.65,3.3-.89-7,18-10.55.89,7-5.64,3.3L48.07,212Zm-1.14-19.66,2.23,17.44,4.15-2.43-2.23-17.44,5.64-3.3-.52-4-15.43,9,.52,4Zm14.31,11.95-3.12-24.38,16.08-9.42.88,6.91L59,186.78l.27,2.09,8.61-5.05.83,6.49-8.61,5.05.25,1.95,9.36-5.48.89,6.94Zm-1.65-23.66L55.63,206l13.51-7.91-.51-4-9.37,5.49-.62-4.91,8.61-5-.45-3.54-8.62,5-.64-5,9.36-5.48-.5-4Zm19.3,13.32-3.12-24.38L75,170l6.82,7.25.19.27-1.39-10.81,6.63-3.88,3.12,24.38-6.29,3.68-6.4-6.69-.25-.36.15.53,1.23,9.6Zm-1.65-23.66,2.74,21.44,4.09-2.4-1.1-8.65-1.38-4.41,1.07-.88,2.84,4.07,5.55,5.78,4.58-2.68L86.17,165l-4.06,2.38,1.27,9.91c.11.3.27.82.53,1.71l.44,1.46.84.28-1.67,1.39L80.74,178l-6-6.33ZM92.47,186l-3.13-24.38,6.66-3.9,3.12,24.38Zm-1.66-23.66,2.75,21.43,4.09-2.39-2.74-21.43ZM51.56,183.63l5-10.34,4-2.36,6.61,3.56-6.25,3.65-1.28-.7-.9,2Zm6-9.38-2.86,5.94,2.95-1.73L59,175.53l1.9,1,3.48-2-3.79-2Zm46.26,4.07a7,7,0,0,1-4-1.24l-.51-.34,3.6-6.6.61.38c1.13.7,2.88.28,4.1-.46a3.25,3.25,0,0,0,1.88-2.54c0-.11,0-.13-.07-.14-.33-.2-1.43-.07-2.91.56-2.38,1-4.53,1-6,.12A5.19,5.19,0,0,1,98.13,164c-.64-5,3.25-9.76,7.14-12,2.08-1.21,5.21-2.6,8.44-.59l.58.37-3.83,6.07-.56-.27a3.68,3.68,0,0,0-3.62.49,3,3,0,0,0-1.49,2.61.24.24,0,0,0,.12.17c.11.06.59.23,2.07-.27,2.4-.91,5.14-1.69,7.06-.48,1.27.8,2,2.3,2.17,4.58.41,4.84-3.75,10-7.86,12.42A8.83,8.83,0,0,1,103.86,178.32Zm-2.71-2a6.54,6.54,0,0,0,6.5-.44c3.82-2.24,7.55-7,7.2-11.14-.16-1.79-.67-3-1.54-3.53-1.42-.9-3.88-.15-5.86.61-1.52.51-2.54.56-3.23.16a1.65,1.65,0,0,1-.78-1.16,4.32,4.32,0,0,1,2.07-3.93,5.27,5.27,0,0,1,4.42-.82l2.45-3.88c-1.84-.86-3.85-.56-6.42.94-3.63,2.13-7,6.48-6.47,10.68a3.89,3.89,0,0,0,1.7,3.11c1.14.67,2.86.6,4.84-.2,1.06-.46,3-1.14,4.14-.47a1.51,1.51,0,0,1,.72,1.22c.09,1.38-.86,2.8-2.54,3.81a5.9,5.9,0,0,1-4.87.76Zm22.44-8.54-3.12-24.38,8.34-4.89c2.95-1.72,5.62-2.16,7.52-1.23,1.52.75,2.44,2.29,2.74,4.57l1,7.7c.76,5.94-3.63,10.74-7.62,13.05Zm-1.65-23.66,2.74,21.44,7.06-4.14c3.63-2.1,7.63-6.42,7-11.7l-1-7.7c-.23-1.8-.9-3-2-3.51-1.46-.72-3.72-.28-6.23,1.18Zm6.35,15.06-1.73-13.54,3.12-1.83a3.07,3.07,0,0,1,2.88-.49,2.18,2.18,0,0,1,1.12,1.86l.92,7.15a4.78,4.78,0,0,1-2.68,4.73ZM128,146.32l1.36,10.6,1.84-1.08a3.42,3.42,0,0,0,2-3.38l-.91-7.15c0-.25-.12-.68-.37-.8s-.53-.18-1.59.44Zm14.64,10.24-3.12-24.38,16.08-9.42.88,6.91-9.36,5.49.27,2.08,8.61-5,.83,6.48-8.61,5,.25,2,9.36-5.49.89,6.94ZM141,132.9l2.75,21.44,13.51-7.92-.51-4-9.36,5.48-.63-4.9,8.61-5-.45-3.54-8.62,5.05-.64-5L155,129l-.5-4ZM165.78,143l-3.12-24.38L169,115l5.37,7.81,2.8-12.59,6.52-3.82,3.12,24.37-6.69,3.92-.93-7.58-.95,5-4.53,2.66-2.4-3.85.24,1.12.91,7.11Zm-1.65-23.66,2.74,21.43,4.09-2.4-.78-6.15-1-4.76,1.07-.88,3.91,6.29,2.85-1.67,1.8-9.56,1.42-.56.31,5.76.68,5.54,4.12-2.41-2.74-21.43L178.34,111,175,126.12l-6.44-9.35Zm24.73,10.14-3.12-24.38,16.07-9.42.89,6.91-9.36,5.48.26,2.09,8.62-5,.83,6.49-8.62,5.05.25,1.95,9.37-5.48.89,6.94Zm-1.65-23.66L190,127.28l13.52-7.91-.52-4-9.36,5.49L193,116l8.62-5-.46-3.54-8.61,5-.64-5,9.36-5.48-.51-4Zm21.95,10.79a7,7,0,0,1-4-1.24l-.51-.35,3.59-6.59.61.38c1.14.7,2.88.28,4.1-.46a3.22,3.22,0,0,0,1.88-2.54c0-.11,0-.13-.07-.15-.32-.19-1.43-.07-2.9.57-2.39,1-4.54,1-6.06.12a5.18,5.18,0,0,1-2.36-4.11c-.64-5,3.25-9.76,7.13-12,2.08-1.21,5.21-2.6,8.44-.59l.58.37-3.83,6.07-.55-.28a3.71,3.71,0,0,0-3.62.5,3,3,0,0,0-1.5,2.61.24.24,0,0,0,.13.17c.11.06.58.23,2.07-.27,2.4-.91,5.13-1.69,7.05-.48,1.27.8,2,2.3,2.17,4.58.42,4.83-3.74,10-7.86,12.42A8.83,8.83,0,0,1,209.16,116.64Zm-2.71-2a6.53,6.53,0,0,0,6.51-.44c3.81-2.23,7.54-7,7.19-11.13-.15-1.8-.67-3-1.54-3.53-1.42-.9-3.88-.15-5.86.6-1.52.52-2.53.57-3.22.17a1.63,1.63,0,0,1-.79-1.16,4.34,4.34,0,0,1,2.07-3.93,5.29,5.29,0,0,1,4.42-.82l2.45-3.88c-1.84-.87-3.85-.56-6.42.94-3.62,2.12-7,6.47-6.47,10.68a3.94,3.94,0,0,0,1.7,3.11c1.15.67,2.87.6,4.84-.2,1.07-.46,3-1.14,4.14-.48a1.55,1.55,0,0,1,.73,1.22c.09,1.38-.86,2.8-2.54,3.81a5.87,5.87,0,0,1-4.87.77Zm14.4-3.82,4.76-29,5.77-3.38L242.58,98l-7,4.08-2-3.79-4.77,2.8-.73,5.36Zm6-28.14-4.19,25.49,4.22-2.47.73-5.37,6.58-3.85,2,3.78,4.56-2.67-9.85-17.27ZM228,96.12l.86-9.28,1.13-.68,2.85,7.13Zm2-6.36-.35,3.83,1.52-.89Z"/><path class="cls-35" d="M155.65,320.2l-.26-.17a55.74,55.74,0,0,1-5.82-4.42l-.44-.39.31-.49c4-6.39,8.25-13.27,12.25-20.31,12.75-22.47,18-38.12,16.37-49.25h0a18.49,18.49,0,0,0-8.49-13.59,16,16,0,0,1-3.21-1.8l-4.81-3.71,68.94,31.87h0L230,259.2h0c-12.2-5.57-21.71-2.26-29.93,10.44-3.82,5.88-7.38,13.7-11.56,25.36-.9,2.52-1.85,5.26-3,8.63l-.08.24-.22.13-23.37,13.64a24.83,24.83,0,0,1-5.84,2.48ZM150.91,315a53.9,53.9,0,0,0,5,3.75,24,24,0,0,0,5.22-2.26l23.15-13.51c1.1-3.27,2-5.95,2.92-8.41,4.21-11.76,7.82-19.67,11.69-25.65,6.48-10,14-14.48,22.82-13.51l-47.92-22.15A20.24,20.24,0,0,1,179.41,245h0c1.63,11.45-3.62,27.38-16.53,50.13C159,302,154.83,308.69,150.91,315Z"/><path class="cls-36" d="M239.58,261.27a22.52,22.52,0,0,1-9.35-1.94l-.3-.14-63.51-29.36-.06-.05c-10.88-8.4-12.2-23.37-11.39-34.45a94.07,94.07,0,0,1,5.67-25.44l.09-.23,41.82-24.55,44.28-26,.29.09c.74.22,1.48.46,2.22.71a74.16,74.16,0,0,1,7.84,3.15,70.24,70.24,0,0,1,24.51,18.34l.16.19v85.91l-.09.16a96.56,96.56,0,0,1-12.61,17.88c-6.28,6.88-12.94,11.59-19.8,14A29.66,29.66,0,0,1,239.58,261.27Zm-72.44-32.61,63.67,29.43c5.18,2.37,11.61,2.43,18.08.15,6.65-2.33,13.13-6.92,19.25-13.63a95,95,0,0,0,12.34-17.47V142.07a68.92,68.92,0,0,0-23.88-17.78,73.72,73.72,0,0,0-7.7-3.1q-.94-.31-1.89-.6l-85.17,50a92.71,92.71,0,0,0-5.51,24.83h0C155.55,206.16,156.79,220.61,167.14,228.66Z"/><path class="cls-37" d="M32.64,246.46V232.14l.34-.2L266.85,94.62v14.32l-.34.2ZM34,232.93v11.14L265.48,108.16V97Z"/><path class="cls-38" d="M89.62,269.11A16.34,16.34,0,1,1,106,252.77,16.35,16.35,0,0,1,89.62,269.11Zm0-31.31a15,15,0,1,0,15,15A15,15,0,0,0,89.62,237.8Z"/></g></g></g></g></svg>